<svg xmlns="http://www.w3.org/2000/svg" viewBox="0 0 1495 1052" fill="none" stroke="#6D8398" stroke-width="18" stroke-linecap="round" stroke-linejoin="round"><g transform="translate(1495 0) scale(-1 1)"><path d="M405.7 483.4c-4.5 1.7-9.9 5.6-12.5 9.3-3.2 4.6-18.6 30.8-18.3 31.2.1.2-.3.7-.9 1.1-3.8 2.4-23.2 38.2-32.5 60-3.6 8.5-7 16.3-7.5 17.2-.6 1-1 2.2-1 2.8s-.7 2.7-1.6 4.8c-.9 2-1.8 4.6-1.9 5.7s-1.9 8.1-3.9 15.5-6.5 25.6-10.1 40.5c-3.5 14.8-9.5 39.6-13.4 55-15.2 61.2-16.6 72.3-18.1 145-1.2 63.1-1.8 65.7-21 99.5-14.7 25.7-15 26.3-12.6 25.9 1-.2 3.7-4.1 6.3-8.9 2.4-4.7 7.8-14.2 11.9-21.2 8.7-14.8 10.8-19.3 12.9-27.4 3.6-14.5 4.6-27.7 5.6-74.9.5-25.9 1.1-48.4 1.3-50 .3-1.7 1-8 1.7-14 1.9-18.8 5.7-37.7 14.4-72.5 4.6-18.4 11.4-46.1 15-61.5 7.3-30.8 13.7-53.9 16.6-59.9 1.1-2.2 1.9-4.6 1.9-5.4 0-4 21.2-47.7 29.9-61.7 6.8-10.9 18.8-31.1 23.1-38.7 3.5-6.3 10.3-13.9 13-14.7 5.8-1.6 12.9-1.2 17.9 1 6 2.5 14.8 12 15.8 17 .3 1.6.9 2.7 1.3 2.4.4-.2.6 4.2.5 9.8-.3 10.4-.5 11.6-8 34.2-1.4 4.4-4 12.3-5.7 17.5-4.4 13.6-9.3 23.4-13.3 26.4-1.8 1.4-3.8 2.6-4.4 2.6s-1.7 1.3-2.6 3c-.8 1.6-2.9 4-4.5 5.2-1.7 1.2-3.9 4-5.1 6.2-1.1 2.3-2.9 5.4-4 7.1-2.8 4.4-2.7 4.2-5.3 13.5-3.8 13.8-19.4 56.8-23.8 65.8-3.6 7.4-4.5 12.3-1.8 10.7 2.5-1.5 8.9-16.8 19.1-45.4 6-16.8 13.5-35.8 16.6-42.1 5.7-11.6 7.2-13.4 22.8-28 4.6-4.3 22.7-16.7 30.3-20.6 12.4-6.5 26.4-7.4 39.2-2.5 6.5 2.5 15.8 9.9 19.7 15.8 4.8 7.3 4.8 8.2.3 13.7-2.2 2.6-6.3 8.9-9.1 14-3.5 6.2-7 10.8-10.9 14.3-3.2 2.9-8.8 9.3-12.5 14.3-7.7 10.4-10.8 18.1-18.1 45.3-2.5 9.4-5.5 18.7-6.6 20.5-1.6 2.6-1.8 3.6-.9 4.5 1 .9 1.7.6 3.2-1.2 1.1-1.3 12.6-23.6 25.5-49.5 13-25.8 25.7-50.2 28.3-54.1 11.1-17 36.3-36.1 51.9-39.4 21.9-4.6 41.5 7.9 43.9 28.1.9 7.7-1.1 13.2-8.8 23.7-3.9 5.2-8.9 12.7-11.1 16.6-2.3 3.8-6.1 10.1-8.6 13.9-4.5 6.9-11.5 23.2-19.1 45.1-2.3 6.6-5.5 14.2-7.1 16.8-2.9 4.7-3.1 6.7-.7 6.7 1.6-.1 6.8-9 10.2-17.5 17-43.1 28-64.4 44.4-86.3 13.5-17.8 29.8-35.2 37.1-39.5 14.8-8.6 33-6.9 43.4 4.3 5.2 5.6 6.9 10.5 6.8 20.5 0 10.1-3.8 20.3-13.7 37-14.2 23.9-18.8 34.1-25 55-3.1 10.4-6.7 22.6-8 27-10.7 36.1-16.4 74.9-15.2 104.2.3 7.6 1.1 15.6 1.8 17.8l1.3 4 .6-7.5c.8-9.8 5.6-19.4 14.4-28.7l6.3-6.8.7-8c1.9-23.9 10.2-48.3 22.1-65 5.9-8.3 18.1-19.7 24.6-22.8 11.5-5.7 23.7-5.9 32-.7 3.8 2.3 4.7 3.5 5.2 6.5.9 5.3-.8 17.5-4.8 35.4-4.1 18-4.2 21.6-1.4 41.3 3 22.1 3.4 20.3-21.8 95.4-14.9 44.4-16.1 46.9-30 65.9-3.7 4.9-13.5 15.9-22 24.2C643 989 642.2 990 645 990c2.6 0 5.1-2 15.8-12.8 13.5-13.5 24.3-27 33.1-41.6 4.5-7.4 7-13.8 15.7-40 5.6-17.1 13-39.1 16.3-48.8 10.5-30.6 11.8-40 8.6-62.3-1.9-12.7-1.8-18.3.1-27 4.9-22.4 6.4-31.5 6.4-39.6 0-8.4-.1-9-3.1-12.3-6.2-7.1-19-9.4-30.9-5.6-9.7 3.1-15.8 6.9-24.1 15-10.6 10.3-19.2 24.1-25.4 40.7-2.9 7.7-7 27.2-8.1 38.1-.6 6.9-.9 7.5-5.3 12-2.6 2.7-6.2 7.1-8.1 10-1.8 2.9-3.6 5.2-3.8 5.2-.3 0-.2-6.6.1-14.8 1-23.7 3.9-43.2 10.8-70.7 2.8-11.1 5.4-20.2 14.6-50.5 4-13.2 8.2-21.9 21.7-45 11.3-19.3 14.7-28.6 14.8-40 .1-22.3-17.5-36.4-40.7-32.8-10.5 1.6-17.8 6-29.5 17.5-5.8 5.7-11.5 11.9-12.8 13.8-2.8 4.4-4.6 4.6-3.7.4.5-2-.1-5.4-1.6-10.1-5.5-17.2-24.7-28-44.1-24.8-10.5 1.7-24.8 9.4-38.9 21.2l-6.2 5.2-1.6-2.5c-6.9-10.4-15.4-17.6-26.4-21.9-5.2-2.1-7.8-2.5-16.7-2.5-9.5.1-11.3.4-18.3 3.3-7.6 3.1-24.7 13.3-29.5 17.6-2.4 2.1-2.4 2.1.4-4.9 1.5-3.9 4.9-13.3 7.6-21 2.6-7.7 5.2-14.9 5.7-16 2.1-4.8 4.1-13.5 4.1-17.8 0-2.5.4-5.6.9-6.9s.6-3.8.4-5.6c-.5-3.2-1.8-4.2-2.6-2-.2.7-.2.1 0-1.3.6-3.7-4.4-13.6-9.1-18.2-8.2-7.9-17.1-10.4-25.9-7.3m70.8 176.1c-6.9 14.2-12.8 25.5-13.1 25.2-.9-.9 6.7-25 9.7-30.8 3.1-5.7 14.9-21.3 15.6-20.5.2.2-5.3 12-12.2 26.1"/></g></svg>