<svg xmlns="http://www.w3.org/2000/svg" viewBox="0 0 1495 1052" fill="none" stroke="#6D8398" stroke-width="18" stroke-linecap="round" stroke-linejoin="round"><path d="M568.7 500.5c-9.3 3.2-10.1 3.8-23.2 19-1.4 1.6-4 5.1-5.7 7.7-1.7 2.7-3.5 4.8-4 4.8-.4 0-.8.6-.8 1.4s-.6 2.1-1.2 2.8c-.7.7-1.9 2.5-2.7 4-.8 1.6-1.8 2.8-2.3 2.8-.4 0-.8.6-.8 1.3 0 .8-.9 2.2-2 3.2s-3 3.8-4.2 6.2-3 5.1-4 6-1.8 2.2-1.8 3c0 .7-.4 1.3-1 1.3-.5 0-1 .5-1 1 0 .9-4.7 8.7-6 10-.6.6-4.2 5.3-13.5 17.5-3.8 4.9-8.7 10.9-10.9 13.2-2.3 2.3-5.9 6.8-8.1 9.9-2.2 3.2-5.9 8.2-8.3 11.1-2.3 3-5.5 7.5-6.9 10.1s-5.7 8.8-9.5 13.9c-3.7 5.1-6.8 9.6-6.8 10 0 1.3-4.8 6.9-5.3 6.3-.9-.9 8.3-21.1 11.7-26 3.6-5 9.6-19.8 9.6-23.5 0-1.4-1-5.5-2.2-9.1-5.5-16.8-24.8-27.5-44-24.4-10.5 1.7-24.8 9.4-38.9 21.2l-6.2 5.2-1.6-2.5c-6.9-10.4-15.4-17.6-26.4-21.9-5.2-2.1-7.8-2.5-16.7-2.5-9.5.1-11.3.4-18.2 3.2-6.9 2.9-23.6 12.8-31 18.5l-2.7 2.1-4.4-4.6c-7.7-7.9-22-13.7-33.8-13.7-6.6 0-15.9 2.7-22.2 6.3-5.7 3.4-16.1 14.6-29.4 31.6-25.8 33.1-31.9 47.4-43.4 102.2-15.4 73.6-15.9 77.4-18.4 128.4-3 60-5.8 88-10.6 103.5-1.4 4.4-8.9 24.5-14 37.3-4.5 11.2-4.6 11.7-2 11.7 1.3 0 2.4-1.3 3.4-4.3.9-2.3 4.8-12.5 8.7-22.7s8.2-23.2 9.5-29c3.9-17.4 6.4-43.8 9-98 2.4-48.9 2.3-48.4 15.7-113 12.9-62.5 18.7-78.7 36.9-103.1 12.8-17.2 26.9-33.9 32.1-38.2 8.1-6.7 12.9-8.2 25.3-8.2 10.2 0 11.4.2 17.5 3.1 6.5 3.1 16 10.6 16 12.6 0 .6-3.7 5-8.3 9.7-12.6 13.1-17 22.1-33.2 68.6-4.2 12.1-9.4 25.7-11.7 30.3-3.6 7.4-4.5 12.3-1.8 10.7 2.5-1.5 8.9-16.8 19.1-45.4 6-16.8 13.5-35.8 16.6-42.1 5.1-10.4 6.5-12.4 14.8-20.5 9.6-9.5 27.1-22.2 38.3-28.1 12.4-6.5 26.4-7.3 39.2-2.5 6.5 2.5 15.8 9.9 19.7 15.8 4.8 7.3 4.8 8.2.3 13.7-2.2 2.6-6.3 8.9-9.1 14-3.5 6.2-7 10.8-10.9 14.3-3.2 2.9-8.8 9.3-12.5 14.3-7.7 10.4-10.8 18.1-18.1 45.3-2.5 9.4-5.5 18.7-6.6 20.5-1.6 2.6-1.8 3.6-.9 4.5 1 .9 1.7.6 3.2-1.2 1.1-1.3 12.6-23.6 25.5-49.5 13-25.8 25.7-50.2 28.3-54.1 11.1-17 36.3-36.1 51.9-39.4 21.9-4.6 41.5 7.9 43.9 28.1.4 3.5.1 5.8-1.5 9-1.1 2.4-3.6 7.9-5.6 12.3s-4.5 9.8-5.6 12c-1 2.2-2.2 5.1-2.5 6.5-.4 1.4-2.2 5.3-4 8.6-1.8 3.4-5.7 11.6-8.5 18.3-3.1 7.2-5.6 11.8-6.3 11.4-.6-.3-.7-.1-.3.5s-.4 2.8-1.7 4.9c-4.2 6.9-7.8 15.3-7.1 16.4.4.7.3.9-.2.6s-1.9.9-3 2.6c-9.1 14-9.5 14.7-8.8 17.2.6 2.5.7 2.4 3.5-2 1.6-2.5 3.6-6.1 4.4-8.1.8-1.9 2.2-3.7 3.1-4.1 1.6-.6 11-19.1 13.9-27.4.7-1.9 2.7-5.1 4.4-6.9 1.7-1.9 3.1-4 3.1-4.7s.5-1.3 1-1.3c.6 0 1-.6 1-1.3s.8-2.2 1.8-3.3c2.4-2.7 7.2-10.2 7.2-11.3 0-.5.3-1.1.8-1.3.8-.4 2-1.9 11.8-16.6 4.1-6.1 9.2-12.9 11.3-15 2.1-2 4.6-5.2 5.6-7.1 1.7-3.4 10.1-15.2 11.4-16.1.4-.3 2.1-2.3 3.7-4.5 3.1-4.3 5.9-7.8 8.5-10.5 2-2.2 8-10.2 14.4-19.5 2.7-3.9 5.2-7.2 5.5-7.5.4-.3 1-1.5 1.4-2.8.4-1.2 1.1-2.2 1.5-2.2.5 0 1.4-1.4 2.1-3 .7-1.7 1.6-3 2.1-3 .4 0 1.1-1 1.5-2.2.3-1.2 1-2.6 1.5-3.2 2.6-3.3 9.9-14.8 9.9-15.6 0-.6.4-1 .9-1s1.2-.8 1.5-1.8c.3-.9 2.1-3.3 3.9-5.3 1.8-1.9 4.9-5.7 6.9-8.5 4.6-6 6.7-8 13.8-12.7 3-2 6-4 6.5-4.4 2-1.5 16.1-.1 19.9 2 10 5.6 15.5 15.1 15.8 27.8.2 6.6-2.2 22.9-3.4 22.9-.4 0-.8.9-.8 2s-.4 2.8-.9 3.8c-2.5 4.7-6.1 13.4-6.1 14.7 0 .8-.4 1.5-1 1.5-.5 0-1 .7-1 1.6 0 1.3-1.3 3.9-6.7 12.9-.7 1.1-1.8 3.1-2.5 4.5s-1.8 3.1-2.5 3.8-1.3 2-1.3 2.8-.4 1.4-1 1.4c-.5 0-1 .5-1 1.1 0 1-1.7 4.1-8.7 15.4-.7 1.1-1.6 2.8-1.9 3.7-.3 1-1 1.8-1.4 1.8s-1 .8-1.3 1.7c-.4 1-2 4-3.7 6.8-1.7 2.7-3.5 5.9-4 7-1.2 2.4-3.3 5.8-4 6.5-.3.3-1.1 1.6-1.8 3-.6 1.4-1.8 3.4-2.4 4.5-.7 1.1-2.8 4.3-4.5 7.1-1.8 2.8-3.3 5.6-3.3 6.2s-.4 1.2-.8 1.4c-.8.3-3.9 5.4-9.2 15.3-1.8 3.3-3.5 6.2-3.9 6.5-.9.7-2.8 3.9-5.9 10-1.5 3-3.9 7.3-5.2 9.5-1.4 2.2-2.3 4.6-2.2 5.3.2.8-.1 1.1-.7.7-.6-.3-1.1-.1-1.1.5 0 1.3-2.5 4-3.7 4-.7 0-4.2 9.2-14.8 40-2.4 6.9-6.2 19.6-8.4 28.4-4.1 15.7-4.1 16.1-4.7 38.5-.3 12.5-.1 23.9.4 25.6.9 2.9 1 2.7 5.9-7.6 3.8-8.1 6.5-12.2 11.5-17.5l6.5-6.9.7-8c1.9-23.9 10.2-48.3 22.1-65 5.9-8.3 18.1-19.7 24.6-22.8 11.5-5.7 23.7-5.9 32-.7 3.8 2.3 4.7 3.5 5.2 6.5.9 5.3-.8 17.5-4.8 35.4-4.1 18-4.2 21.6-1.4 41.3 3 22.1 3.4 20.3-21.8 95.4-14.9 44.4-16.1 46.9-30 65.9-3.7 4.9-13.5 15.9-22 24.2C495 1009 494.2 1010 497 1010c2.6 0 5.1-2 15.8-12.8 13.5-13.5 24.3-27 33.1-41.6 4.5-7.4 7-13.8 15.7-40 5.6-17.1 13-39.1 16.3-48.8 10.5-30.6 11.8-40 8.6-62.3-1.9-12.7-1.8-18.3.1-27 4.9-22.4 6.4-31.5 6.4-39.6 0-8.4-.1-9-3.1-12.3-6.2-7.1-19-9.4-30.9-5.6-9.7 3.1-15.8 6.9-24.1 15-10.6 10.3-19.2 24.1-25.4 40.7-2.9 7.7-7 27.2-8.1 38.1-.6 6.9-.9 7.5-5.3 12-2.6 2.7-6.2 7.1-8.1 10-1.8 2.9-3.6 5.2-3.8 5.2-.3 0-.2-7.3.3-16.3.4-8.9.9-18.7 1-21.7.2-7.1 1.3-11.7 8.1-33 7.3-22.7 11.8-34.2 16.2-41 2-3 4.7-7.8 6.2-10.5 2.4-4.6 8.8-16 11-19.5 3.8-6.1 10-16.9 10-17.4 0-.4 2-3.8 4.5-7.6s5-8 5.6-9.2c1.1-2.5 2-4.1 6.2-10.6 1.5-2.3 3.8-6.1 5-8.3 4.4-8 11.8-20.2 12.6-20.9.4-.3 2-3.1 3.6-6.3 4.4-8.4 5-9.5 6.8-11.5 1-1 1.7-2.3 1.7-2.9s.3-1.3.8-1.5c.6-.3 4.3-6.9 11.4-20.8 5.1-10.1 8.8-19 8.8-21.4 0-1.4.4-2.6.9-2.8 1.1-.4 4.9-22.4 4.6-26.3-.3-3-1.1-8.1-1.9-12.2-1.3-6.3-8.1-14-16-17.8-7.1-3.5-14.5-3.8-22.9-1m-240.2 179c-6.9 14.2-12.8 25.5-13.1 25.2-.9-.9 6.7-25 9.7-30.8 3.1-5.7 14.9-21.3 15.6-20.5.2.2-5.3 12-12.2 26.1"/></svg>